<svg xmlns="http://www.w3.org/2000/svg" viewBox="0 0 63.41 77.92"><defs><style>.cls-1{fill:#2da2f9;}.cls-1,.cls-2{fill-rule:evenodd;}.cls-2{fill:#4b4560;}</style></defs><title>icon</title><g id="Layer_2" data-name="Layer 2"><g id="Layer_1-2" data-name="Layer 1"><g id="Ebene_1-10" data-name="Ebene 1-10"><g id="_2226547448368-10" data-name=" 2226547448368-10"><path class="cls-1" d="M57,27.83V77.77h2.78V17.4L34.68,0V12.59Z"/><path class="cls-2" d="M34.68,0,2.25,25.5v3.26l27-20,5.45,3.88Z"/><path class="cls-2" d="M29.23,77.92V8.24l-27,19.93V77.92"/></g></g><polygon class="cls-1" points="35.85 25.58 32.5 23.28 32.5 17.27 35.85 19.58 35.85 25.58"/><polygon class="cls-1" points="42.56 42.21 39.21 39.91 39.21 33.9 42.56 36.2 42.56 42.21"/><polygon class="cls-1" points="45.92 50.52 42.56 48.22 42.56 42.21 45.92 44.51 45.92 50.52"/><polygon class="cls-1" points="52.63 67.14 49.28 64.84 49.28 58.83 52.63 61.13 52.63 67.14"/><path class="cls-1" d="M11.3,40V77.92H22.62v-30"/><path class="cls-2" d="M0,47.93v30H11.3V40"/><path class="cls-1" d="M59.42,45.59V77.77h4V48.17Z"/></g></g></svg>