<svg xmlns="http://www.w3.org/2000/svg" viewBox="0 0 63.62 105.29"><defs><style>.cls-1,.cls-5{fill:#2da2f9;}.cls-1,.cls-2{fill-rule:evenodd;}.cls-2,.cls-4{fill:#4b4560;}.cls-3{isolation:isolate;}</style></defs><title>logo</title><g id="Layer_2" data-name="Layer 2"><g id="Layer_1-2" data-name="Layer 1"><g id="Ebene_1-10" data-name="Ebene 1-10"><g id="_2226547448368-10" data-name=" 2226547448368-10"><path class="cls-1" d="M57.53,27.83V77.77h2.78V17.4L35.27,0V12.59Z" transform="translate(-0.37)"/><path class="cls-2" d="M35.27,0,2.83,25.5v3.26l27-20,5.46,3.88Z" transform="translate(-0.37)"/><path class="cls-2" d="M29.81,77.92V8.24l-27,19.93V77.92" transform="translate(-0.37)"/></g></g><polygon class="cls-1" points="36.07 25.58 32.71 23.28 32.71 17.27 36.07 19.58 36.07 25.58"/><polygon class="cls-1" points="42.78 42.21 39.42 39.91 39.42 33.9 42.78 36.2 42.78 42.21"/><polygon class="cls-1" points="46.14 50.52 42.78 48.22 42.78 42.21 46.14 44.51 46.14 50.52"/><polygon class="cls-1" points="52.85 67.14 49.49 64.84 49.49 58.83 52.85 61.13 52.85 67.14"/><path class="cls-1" d="M11.88,40V77.92H23.21v-30" transform="translate(-0.37)"/><path class="cls-2" d="M.58,47.93v30h11.3V40" transform="translate(-0.37)"/><path class="cls-1" d="M60,45.59V77.77h4V48.17Z" transform="translate(-0.37)"/><g class="cls-3"><path class="cls-4" d="M6.09,89.92a2.62,2.62,0,0,1,0,.27l0,.28H1.76a1.78,1.78,0,0,0,.21.44,1.65,1.65,0,0,0,.33.37,1.7,1.7,0,0,0,.44.24,1.57,1.57,0,0,0,.54.08A2.33,2.33,0,0,0,4,91.48a1.74,1.74,0,0,0,.6-.34l.84.85a3.74,3.74,0,0,1-1.09.58,3.46,3.46,0,0,1-1.12.18,2.85,2.85,0,0,1-1.13-.23,2.83,2.83,0,0,1-.91-.6A2.7,2.7,0,0,1,.59,91a2.83,2.83,0,0,1-.22-1.09,2.88,2.88,0,0,1,.22-1.1,2.73,2.73,0,0,1,.62-.9,3.08,3.08,0,0,1,.9-.6,2.8,2.8,0,0,1,1.12-.22,3,3,0,0,1,1.08.2,3,3,0,0,1,.92.58,2.67,2.67,0,0,1,.63.89A2.64,2.64,0,0,1,6.09,89.92Zm-1.4-.52a1.54,1.54,0,0,0-.56-.82,1.43,1.43,0,0,0-.91-.31,1.39,1.39,0,0,0-.9.31,1.6,1.6,0,0,0-.56.82Z" transform="translate(-0.37)"/><path class="cls-4" d="M12.36,92.61H11v-3.2a1.33,1.33,0,0,0-.09-.51,1,1,0,0,0-.24-.36.81.81,0,0,0-.34-.21,1,1,0,0,0-.39-.07,1.81,1.81,0,0,0-.61.1,1.54,1.54,0,0,0-.54.34v3.91H7.49V87.25H8.82v.39a1.46,1.46,0,0,1,.3-.22,2.92,2.92,0,0,1,.36-.17,2.85,2.85,0,0,1,.39-.11l.39,0a2.28,2.28,0,0,1,.78.13,1.88,1.88,0,0,1,.67.39,2,2,0,0,1,.47.7,2.57,2.57,0,0,1,.17,1Z" transform="translate(-0.37)"/><path class="cls-4" d="M19.48,89.92a2.62,2.62,0,0,1,0,.27c0,.09,0,.18,0,.28H15.15a1.78,1.78,0,0,0,.21.44,1.65,1.65,0,0,0,.33.37,1.55,1.55,0,0,0,.44.24,1.53,1.53,0,0,0,.54.08,2.27,2.27,0,0,0,.72-.12,1.89,1.89,0,0,0,.61-.34l.84.85a3.87,3.87,0,0,1-1.09.58,3.52,3.52,0,0,1-1.13.18,2.77,2.77,0,0,1-1.12-.23A2.79,2.79,0,0,1,14,91a2.66,2.66,0,0,1-.22-1.09,2.79,2.79,0,0,1,.83-2,3,3,0,0,1,.91-.6,2.78,2.78,0,0,1,1.11-.22,3.1,3.1,0,0,1,1.09.2,3.26,3.26,0,0,1,.92.58,3,3,0,0,1,.63.89A2.8,2.8,0,0,1,19.48,89.92Zm-1.4-.52a1.6,1.6,0,0,0-.56-.82,1.46,1.46,0,0,0-.92-.31,1.43,1.43,0,0,0-.9.31,1.58,1.58,0,0,0-.55.82Z" transform="translate(-0.37)"/><path class="cls-4" d="M24.8,91.1a1.36,1.36,0,0,1-.18.71,1.74,1.74,0,0,1-.49.52,2.13,2.13,0,0,1-.66.32,2.74,2.74,0,0,1-.74.1,2.81,2.81,0,0,1-1.13-.22,2.49,2.49,0,0,1-.91-.73L21.5,91a1.69,1.69,0,0,0,.56.48,1.32,1.32,0,0,0,.68.17,1.14,1.14,0,0,0,.52-.11.38.38,0,0,0,.21-.35.46.46,0,0,0-.3-.4,3.9,3.9,0,0,0-.83-.32,6.62,6.62,0,0,1-.62-.24,2.37,2.37,0,0,1-.52-.35,1.75,1.75,0,0,1-.38-.48,1.38,1.38,0,0,1-.13-.62,1.35,1.35,0,0,1,.18-.7,1.67,1.67,0,0,1,.47-.52,2.18,2.18,0,0,1,.67-.32,2.35,2.35,0,0,1,.75-.11,2.52,2.52,0,0,1,2,.92l-.8.81a1.87,1.87,0,0,0-.53-.45,1.22,1.22,0,0,0-.65-.17l-.25,0a.92.92,0,0,0-.25.09.6.6,0,0,0-.19.16.37.37,0,0,0-.08.22.45.45,0,0,0,.28.37,4.11,4.11,0,0,0,.82.32,3.27,3.27,0,0,1,.65.26,2.25,2.25,0,0,1,.53.36,1.55,1.55,0,0,1,.37.48A1.25,1.25,0,0,1,24.8,91.1Z" transform="translate(-0.37)"/></g><g class="cls-3"><path class="cls-5" d="M1.47,97v8.23H.63V97Z" transform="translate(-0.37)"/><path class="cls-5" d="M11.4,97v8.21h-.86v-7l-2.77,4H7.05l-2.77-4v7H3.44V97h1l2.93,4.25L10.34,97Z" transform="translate(-0.37)"/><path class="cls-5" d="M21.31,97v8.21h-.85v-7l-2.77,4H17l-2.77-4v7h-.84V97h1l2.93,4.25L20.26,97Z" transform="translate(-0.37)"/><path class="cls-5" d="M23.15,101.17a4.13,4.13,0,1,1,4.12,4.12A4.13,4.13,0,0,1,23.15,101.17Zm7.4,0a3.28,3.28,0,1,0-3.28,3.28A3.29,3.29,0,0,0,30.55,101.17Z" transform="translate(-0.37)"/><path class="cls-5" d="M38.23,103A2.26,2.26,0,0,1,36,105.23H33.25V97h2.41a2.27,2.27,0,0,1,1.46,4A2.26,2.26,0,0,1,38.23,103Zm-2.57-5.14H34.09v2.86h1.57a1.43,1.43,0,0,0,0-2.86ZM37.39,103A1.43,1.43,0,0,0,36,101.53H34.09v2.86H36A1.43,1.43,0,0,0,37.39,103Z" transform="translate(-0.37)"/><path class="cls-5" d="M40.91,97v8.23h-.84V97Z" transform="translate(-0.37)"/><path class="cls-5" d="M46.42,104.39v.84H42.88V97h.85v7.39Z" transform="translate(-0.37)"/><path class="cls-5" d="M49.1,97v8.23h-.84V97Z" transform="translate(-0.37)"/><path class="cls-5" d="M51.91,97.84v2.89h2.46v.79H51.91v2.87h3.66v.84h-4.5V97h4.5v.84Z" transform="translate(-0.37)"/><path class="cls-5" d="M63.54,97v8.23h-1l-4.15-6.65v6.65h-.85V97h.89l4.27,6.83V97Z" transform="translate(-0.37)"/></g></g></g></svg>