<svg xmlns="http://www.w3.org/2000/svg" viewBox="0 0 63.17 18.19"><defs><style>.cls-1{isolation:isolate;}.cls-2{fill:#4b4560;}.cls-3{fill:#2da2f9;}</style></defs><title>name</title><g id="Layer_2" data-name="Layer 2"><g id="Layer_1-2" data-name="Layer 1"><g class="cls-1"><path class="cls-2" d="M6.09,5.66a2.53,2.53,0,0,1,0,.27l0,.28H1.76A1.85,1.85,0,0,0,2,6.66,1.61,1.61,0,0,0,2.3,7a1.7,1.7,0,0,0,.44.24,1.57,1.57,0,0,0,.54.09A2.34,2.34,0,0,0,4,7.22a1.6,1.6,0,0,0,.6-.34l.84.85a3.78,3.78,0,0,1-1.09.59,3.75,3.75,0,0,1-1.12.17,3,3,0,0,1-1.13-.22,2.85,2.85,0,0,1-.91-.61,2.77,2.77,0,0,1-.61-.89,2.92,2.92,0,0,1-.22-1.1,2.88,2.88,0,0,1,.22-1.1,3,3,0,0,1,.62-.9,3.08,3.08,0,0,1,.9-.6,2.8,2.8,0,0,1,1.12-.22,2.85,2.85,0,0,1,1.08.21,2.82,2.82,0,0,1,.92.58,2.54,2.54,0,0,1,.63.88A2.67,2.67,0,0,1,6.09,5.66Zm-1.4-.52a1.58,1.58,0,0,0-.56-.82A1.43,1.43,0,0,0,3.22,4a1.39,1.39,0,0,0-.9.31,1.64,1.64,0,0,0-.56.82Z" transform="translate(-0.37 -2.85)"/><path class="cls-2" d="M12.36,8.35H11V5.15a1.36,1.36,0,0,0-.09-.51,1.13,1.13,0,0,0-.24-.36.92.92,0,0,0-.34-.21A1,1,0,0,0,10,4a1.81,1.81,0,0,0-.61.1,1.7,1.7,0,0,0-.54.34V8.35H7.49V3H8.82v.4a1.48,1.48,0,0,1,.3-.23L9.49,3l.39-.11.39,0a2.28,2.28,0,0,1,.78.13,1.76,1.76,0,0,1,.67.4,1.92,1.92,0,0,1,.47.69,2.61,2.61,0,0,1,.17,1Z" transform="translate(-0.37 -2.85)"/><path class="cls-2" d="M19.48,5.66a2.53,2.53,0,0,1,0,.27,2.7,2.7,0,0,1,0,.28H15.15a1.85,1.85,0,0,0,.21.45,1.61,1.61,0,0,0,.33.36,1.55,1.55,0,0,0,.44.24,1.53,1.53,0,0,0,.54.09,2.28,2.28,0,0,0,.72-.13A1.72,1.72,0,0,0,18,6.88l.84.85a3.92,3.92,0,0,1-1.09.59,3.81,3.81,0,0,1-1.13.17,2.94,2.94,0,0,1-1.12-.22,2.79,2.79,0,0,1-1.74-2.6A2.7,2.7,0,0,1,14,4.57a2.92,2.92,0,0,1,.61-.9,3,3,0,0,1,.91-.6,2.78,2.78,0,0,1,1.11-.22,2.9,2.9,0,0,1,1.09.21,3,3,0,0,1,.92.58,2.68,2.68,0,0,1,.86,2Zm-1.4-.52a1.64,1.64,0,0,0-.56-.82A1.46,1.46,0,0,0,16.6,4a1.43,1.43,0,0,0-.9.31,1.62,1.62,0,0,0-.55.82Z" transform="translate(-0.37 -2.85)"/><path class="cls-2" d="M24.8,6.85a1.41,1.41,0,0,1-.18.71,1.86,1.86,0,0,1-.49.52,2.36,2.36,0,0,1-.66.31,2.76,2.76,0,0,1-.74.11,2.82,2.82,0,0,1-1.13-.23,2.39,2.39,0,0,1-.91-.73l.81-.81a1.78,1.78,0,0,0,.56.47,1.33,1.33,0,0,0,.68.18,1,1,0,0,0,.52-.12.37.37,0,0,0,.21-.35c0-.16-.1-.29-.3-.4a3.9,3.9,0,0,0-.83-.32A3.61,3.61,0,0,1,21.72,6a2.37,2.37,0,0,1-.52-.35,1.75,1.75,0,0,1-.38-.48,1.38,1.38,0,0,1-.13-.62,1.38,1.38,0,0,1,.18-.7,1.67,1.67,0,0,1,.47-.52A2.18,2.18,0,0,1,22,3a2.35,2.35,0,0,1,.75-.11,2.5,2.5,0,0,1,2,.93l-.8.8a1.87,1.87,0,0,0-.53-.45A1.31,1.31,0,0,0,22.79,4l-.25,0a1.45,1.45,0,0,0-.25.1.58.58,0,0,0-.19.15.37.37,0,0,0-.08.22.45.45,0,0,0,.28.37,4.11,4.11,0,0,0,.82.32,4,4,0,0,1,.65.26,2.59,2.59,0,0,1,.53.36,1.55,1.55,0,0,1,.37.48A1.26,1.26,0,0,1,24.8,6.85Z" transform="translate(-0.37 -2.85)"/></g><g class="cls-1"><path class="cls-3" d="M1.47,12.74V21H.63V12.74Z" transform="translate(-0.37 -2.85)"/><path class="cls-3" d="M11.4,12.74V21h-.86v-7L7.77,18H7.05l-2.77-4v7H3.44V12.74h1L7.41,17l2.93-4.25Z" transform="translate(-0.37 -2.85)"/><path class="cls-3" d="M21.31,12.74V21h-.85v-7l-2.77,4H17l-2.77-4v7h-.84V12.74h1L17.33,17l2.93-4.25Z" transform="translate(-0.37 -2.85)"/><path class="cls-3" d="M23.15,16.91A4.13,4.13,0,1,1,27.27,21,4.14,4.14,0,0,1,23.15,16.91Zm7.4,0a3.28,3.28,0,1,0-3.28,3.28A3.29,3.29,0,0,0,30.55,16.91Z" transform="translate(-0.37 -2.85)"/><path class="cls-3" d="M38.23,18.71A2.26,2.26,0,0,1,36,21H33.25V12.73h2.41a2.27,2.27,0,0,1,1.46,4A2.28,2.28,0,0,1,38.23,18.71Zm-2.57-5.14H34.09v2.86h1.57a1.43,1.43,0,0,0,0-2.86Zm1.73,5.14A1.44,1.44,0,0,0,36,17.27H34.09v2.86H36A1.43,1.43,0,0,0,37.39,18.71Z" transform="translate(-0.37 -2.85)"/><path class="cls-3" d="M40.91,12.74V21h-.84V12.74Z" transform="translate(-0.37 -2.85)"/><path class="cls-3" d="M46.42,20.13V21H42.88V12.74h.85v7.39Z" transform="translate(-0.37 -2.85)"/><path class="cls-3" d="M49.1,12.74V21h-.84V12.74Z" transform="translate(-0.37 -2.85)"/><path class="cls-3" d="M51.91,13.58v2.89h2.46v.79H51.91v2.87h3.66V21h-4.5V12.74h4.5v.84Z" transform="translate(-0.37 -2.85)"/><path class="cls-3" d="M63.54,12.74V21h-1l-4.15-6.64V21h-.85V12.74h.89l4.27,6.83V12.74Z" transform="translate(-0.37 -2.85)"/></g></g></g></svg>