<?xml version="1.0" encoding="UTF-8"?>
<!DOCTYPE svg PUBLIC "-//W3C//DTD SVG 1.1//EN" "http://www.w3.org/Graphics/SVG/1.1/DTD/svg11.dtd">
<!-- Creator: CorelDRAW 2019 (64-Bit) -->
<svg xmlns="http://www.w3.org/2000/svg" xml:space="preserve" width="297mm" height="210mm" version="1.1" style="shape-rendering:geometricPrecision; text-rendering:geometricPrecision; image-rendering:optimizeQuality; fill-rule:evenodd; clip-rule:evenodd"
viewBox="0 0 29700 21000"
 xmlns:xlink="http://www.w3.org/1999/xlink">
 <defs>
  <style type="text/css">
   <![CDATA[
    .fil3 {fill:#151515}
    .fil2 {fill:#989898}
    .fil4 {fill:white}
    .fil0 {fill:#2B2A29;fill-rule:nonzero}
    .fil1 {fill:#989898;fill-rule:nonzero}
   ]]>
  </style>
 </defs>
 <g id="Ebene_x0020_1">
  <metadata id="CorelCorpID_0Corel-Layer"/>
  <g id="_2226547466864">
   <path class="fil0" d="M11188.58 18446.85l655.16 0 0 -293.53 -309.96 0 0 -415.64 230.12 0 0 -244.22 -230.12 0 0 -455.56 309.96 0 0 -281.79 -655.16 0 0 1690.74zm1556.89 0l0 -1690.74 -293.53 0 0 951.04 -197.25 -951.04 -312.32 0 0 1690.74 293.53 0 0 -915.82 206.65 915.82 302.92 0zm126.81 0l655.16 0 0 -293.53 -309.96 0 0 -415.64 230.12 0 0 -244.22 -230.12 0 0 -455.56 309.96 0 0 -281.79 -655.16 0 0 1690.74zm1509.93 -533.05c0,-129.16 -14.09,-192.56 -89.23,-267.7l-248.92 -213.69c-56.36,-56.36 -100.97,-70.45 -100.97,-150.29l0 -197.25c0,-42.27 30.52,-51.67 51.66,-51.67 16.44,0 49.31,9.4 49.31,54.01l0 260.66 328.76 0 0 -244.22c0,-108.02 -37.58,-197.25 -119.76,-277.09 -65.76,-63.41 -143.25,-91.58 -263.01,-91.58 -122.11,0 -199.6,28.17 -265.35,91.58 -82.19,79.84 -119.76,169.07 -119.76,277.09 0,0 0,206.65 0,211.34 0,103.33 30.53,164.38 93.93,227.78l244.22 220.74c79.84,77.49 100.97,84.54 100.97,157.33 0,0 0,206.65 0,206.65 0,46.96 -44.62,51.66 -56.36,51.66 -14.09,0 -58.7,-4.7 -58.7,-51.66l0 -286.49 -324.06 0 0 270.05c0,108.02 37.57,194.91 119.76,274.75 65.75,65.75 143.24,93.93 263,93.93 124.46,0 211.35,-30.53 274.75,-93.93 82.19,-79.84 119.76,-166.73 119.76,-274.75l0 -197.25z"/>
   <path class="fil1" d="M14506.67 18446.85l333.45 0 0 -1690.74 -333.45 0 0 1690.74zm1113.07 -1690.74l-103.32 1276.67 -100.98 -1276.67 -429.73 0 0 1690.74 291.19 0 0 -966.3 115.06 966.3 251.26 0 115.07 -963.96 0 963.96 288.83 0 0 -1690.74 -427.38 0zm1188.21 0l-103.32 1276.67 -100.98 -1276.67 -429.73 0 0 1690.74 291.19 0 0 -966.3 115.06 966.3 251.26 0 115.07 -963.96 0 963.96 288.83 0 0 -1690.74 -427.38 0zm1204.65 70.45c-72.8,-70.45 -173.77,-91.58 -277.1,-91.58 -103.32,0 -204.29,21.13 -277.09,91.58 -75.14,75.14 -117.41,162.03 -117.41,274.74l0 1012.1c0,115.06 42.27,199.6 117.41,274.74 72.8,72.8 173.77,91.59 277.09,91.59 103.33,0 204.3,-18.79 277.1,-91.59 77.49,-75.14 119.76,-159.68 119.76,-274.74l0 -1012.1c0,-112.71 -42.27,-199.6 -119.76,-274.74zm-213.69 1305.62c0,46.97 -44.62,54.01 -63.41,54.01 -16.43,0 -61.05,-7.04 -61.05,-54.01l0 -1049.66c0,-46.97 44.62,-51.66 61.05,-51.66 18.79,0 63.41,4.69 63.41,51.66l0 1049.66zm439.12 -1376.07l0 1690.74 394.51 0c103.32,0 216.04,-39.92 288.83,-110.37 75.15,-75.14 117.42,-180.81 117.42,-295.88l0 -185.51c0,-105.67 -54.01,-204.3 -122.11,-279.44 56.35,-70.45 103.32,-159.68 103.32,-253.61l0 -159.68c0,-112.72 -42.27,-218.39 -117.41,-293.53 -72.8,-72.8 -185.51,-112.72 -288.84,-112.72l-375.72 0zm375.72 279.44l0 0c42.27,0 70.45,23.48 70.45,70.45l0 291.18c0,42.27 -21.13,70.45 -65.75,70.45l-44.62 0 0 -432.08 39.92 0zm89.24 1061.41c0,49.31 -16.44,72.8 -70.45,72.8l-58.71 0 0 -462.61c0,0 54.01,0 61.06,0 35.22,0 68.1,25.83 68.1,72.8l0 317.01zm455.56 349.89l333.45 0 0 -1690.74 -333.45 0 0 1690.74zm479.04 0l655.16 0 0 -302.92 -309.96 0 0 -1387.82 -345.2 0 0 1690.74zm765.53 0l333.45 0 0 -1690.74 -333.45 0 0 1690.74zm479.04 0l655.16 0 0 -293.53 -309.96 0 0 -415.64 230.12 0 0 -244.22 -230.12 0 0 -455.56 309.96 0 0 -281.79 -655.16 0 0 1690.74zm1556.89 0l0 -1690.74 -293.53 0 0 951.04 -197.25 -951.04 -312.32 0 0 1690.74 293.53 0 0 -915.82 206.65 915.82 302.92 0z"/>
  </g>
  <g id="_2226547448368">
   <path class="fil2" d="M18185.92 7949.42c2.34,2.5 6.39,2.23 7.78,6.68 5.27,16.87 1925.07,1095.92 2124.93,1228.65l2.99 6909.78 2118.09 0.07 -0.13 -9704.75 -4222.57 -2445.57 -15.03 0 0 17.57 4.36 3986.42 -20.42 1.15z"/>
   <path class="fil2" d="M16796.92 16094.71l2819.1 0.21 4.96 -6499.71c-55.39,-50.64 -1833.91,-1058.54 -2111.4,-1222.18 -60.16,-35.49 -662.03,-388.72 -710.29,-403.09l-2.37 8124.77z"/>
   <path class="fil2" d="M13648.35 16093.22l2449.01 1.34 -0.91 -4623.63c-38.73,-36.84 -2409.92,-1395.06 -2444.78,-1415.14l-18 19.52c29.62,-8.98 14.94,80.31 14.86,149.09l-0.18 5868.82z"/>
   <path class="fil3" d="M13648.35 16093.22l0.18 -5868.82c0.08,-68.78 14.76,-158.07 -14.86,-149.09 -63.78,17.5 -233.26,129.74 -306.45,169.24 -293.67,158.47 -617.77,365.22 -911.42,524.9 -54.1,29.42 -1171.98,665.4 -1208.48,701.48l-1.82 4620.32 2442.85 1.97z"/>
   <path class="fil3" d="M18185.92 7949.42l20.42 -1.15 -4.36 -3986.42c-72.72,14.85 -1858.26,1072.74 -2112.61,1209.44 -332.86,178.92 -711.52,413.89 -1054.18,607.83l-1058.83 612.45 -0.94 1570.91c61.54,-14.25 435.94,-245.31 525.25,-296.51l1579.96 -911.22c36.45,-8.81 468.3,252.04 527.61,287.69l1577.68 906.98z"/>
   <path class="fil3" d="M12572.56 9585.75l-3.9 598.39c94.44,-19.86 978.27,-568.8 1061.04,-600.08 52.93,-20.01 301.95,148.11 354.24,177.84 78.14,44.42 1359.35,801.87 1406.36,802.09l0.59 -2590.76c-85.38,6.19 -2391.97,1389.47 -2818.33,1612.52z"/>
   <path class="fil4" d="M18801.78 10200.68c109.33,54.65 307.4,189.34 394.54,214.6l0.54 -570.77c-31.57,-30.78 -343.38,-209.15 -396.07,-220.22l0.99 576.39z"/>
   <path class="fil4" d="M17222.15 10378.74c73.03,40.34 330.59,202.79 395.13,212.54 -0.93,-683.11 56.96,-536.61 -187.37,-678.34 -68.13,-39.52 -142.54,-88.73 -204.74,-114.42l-3.02 580.22z"/>
   <path class="fil4" d="M19196.9 12600.35l-0.16 -571.44 -391.93 -231.98c-6.06,89.74 -19.34,550.44 10.88,588.03 8.97,11.15 351.27,208.1 381.21,215.39z"/>
   <path class="fil4" d="M19195.3 11508.27l1.39 -571.57c-33.57,-32.4 -350.96,-209.65 -396.37,-219.98 2.43,92.5 -18.3,534.1 15.71,575.63 8.68,10.61 354.17,207.41 379.27,215.92z"/>
   <path class="fil4" d="M18012.14 11921.95c53.78,35.73 333.11,205.15 391.2,216.9l-0.63 -575.13c-72.32,-35.02 -336.02,-206.09 -391.14,-212.65l0.57 570.88z"/>
   <path class="fil4" d="M18012.22 9286.55c-0.1,533.9 -47.14,417.41 177.07,555.55 50.4,31.04 157.54,102.44 213.7,112.93l-0.56 -574.2 -387.71 -225.3 -2.5 131.02z"/>
   <path class="fil4" d="M17221.79 11473.69c91.14,42.77 334.81,201.38 394.68,211.28l-0.04 -570.19 -390.91 -224.07 -3.73 582.98z"/>
   <path class="fil4" d="M17221.86 9288.83c90.2,38.67 323.75,197.86 394.16,210.48l0.51 -568.92 -391.82 -224.64 -2.85 583.08z"/>
   <path class="fil4" d="M18012.19 10343.12l0.51 485.94c50.57,32.16 341.21,206.2 389.25,215.99l0.55 -572.25c-88.59,-44.33 -343.64,-209.59 -391.16,-213.7l0.85 84.02z"/>
  </g>
 </g>
</svg>
